<?xml version="1.0" encoding="UTF-8"?>
<svg version="1.1" viewBox="0 0 2048 519" width="848" height="215" xmlns="http://www.w3.org/2000/svg">
<path transform="translate(594)" d="m0 0h82l1 4 15 1 16 3 18 4 17 5 13 5 12 5 15 8 14 9 16 12 8 7 20 20 6 9 3 3 3 5 3 3v2l5 1v-96l29-1h233l31 1 1 1 13 1 1 1 12 2 26 9 14 7 15 10 22 22 9 14 8 16 7 21 1 10 2 4 1 16 1 1v33l-1 1-1 15-3 13-1 1-2 10-6 16-7 14-7 11-7 8-6 8-3 3h-2v2l-11 8-17 11-10 5-16 6-13 4-6 2-10 1-9 2-9 1-3 1h-120v185l-2 1h-154v-94l-5 1-2 4-3 3-3 5-8 10-9 10-15 15-6 5-5 3-5 4-12 8-20 11-15 7-25 8-22 5-12 2-12 1-1 4h-85v-5h-14l-29-5-25-7-21-8-20-10-7-5-7-4-8-6-6-5-8-7-18-18-4-6-8-10-9-14-10-17h-5l-4 16-5 12-11 21-6 8-7 8-5 7h-2v2l-10 7-7 7-7 4-12 8-11 6-14 6-15 5-22 5-11 1-1 4h-79l-1-4-18-2-25-5-23-8-17-9-15-10-6-5-8-7-7-7-6-8-8-11-7-11-6-14-6-15-3-9-4-17-1-3-1-11-1-2v-18l2-2 4-1 15-1 1-1 15-1 8-2 11-1 2-1 16-1 1-1 16-2 4-1 15-1 1-1 14-1 10-2h11l1 1 1 32 4 16 3 8 8 11 7 6 11 5h30l10-4 8-6 4-5 5-9 5-13 1-10 1-1 1-341 3-3 28-1h25l99 1 2 2v94l7-1 9-13 7-8 7-9 13-13 8-6 7-6 15-10 14-8 23-11 16-6 9-2 1-1 15-3 5-2 10-1 1-1h19zm424 108-1 1v113h69l7-2 10-3 9-4 11-8 6-8 6-12 1-10 1-2v-14l-2-13-9-17-10-10-13-6-14-4-17-1zm-402 8-1 1-10 1-10 4-9 3-14 9-19 19-3 5-9 17-5 15-1 7-1 1-2 12-1 5-1 16-1 1v57l1 1 1 17 3 16 5 17 8 18 7 10 7 9 8 7 10 7 13 7 9 3 7 1 1 1h52l1-1 9-2 11-4 13-7 8-6 13-13 8-13 5-12 5-15 2-12 2-13 1-2 1-27 1-1v-39l-1-1-1-24-2-6-3-16-8-21-9-15-11-12-7-6-14-8-12-6-11-3-9-1-2-1z"/>
<path transform="translate(1391,198)" d="m0 0h72l3 3v153l-1 1h-158l-1-2v-149l1-4 69-1z" fill="#020202"/>
<path transform="translate(1568,198)" d="m0 0h72v156l-1 1h-156v-155l69-1z"/>
<path transform="translate(1744,198)" d="m0 0h72v156l-1 1h-155l-1-1v-153l1-1 67-1z"/>
<path transform="translate(1838,473)" d="m0 0h205l1 2 4 1v38h-210z"/>
<path transform="translate(2045,476)" d="m0 0h3v38h-3z" fill="#FEFEFE"/>
<path transform="translate(858,103)" d="m0 0" fill="#FEFEFE"/>
</svg>
